<svg width="44" height="41" viewBox="0 0 44 41" fill="none" xmlns="http://www.w3.org/2000/svg">
<path d="M29.2899 31.6702H34.7503C36.5948 31.6739 38.3713 30.9736 39.7172 29.7122C41.0631 28.4509 41.877 26.7236 41.9929 24.8826C42.0024 24.7248 42.0024 24.5665 41.9929 24.4086C41.9954 23.4534 41.8094 22.5071 41.4456 21.6239C41.0818 20.7407 40.5473 19.938 39.8727 19.2617C39.1982 18.5853 38.3968 18.0488 37.5146 17.6826C36.6323 17.3165 35.6865 17.1281 34.7313 17.1281H32.8353V13.4878C32.8255 10.6126 31.6842 7.85678 29.6582 5.81658C27.6322 3.77639 24.8844 2.61582 22.0093 2.58594H21.6111C19.7387 2.65505 17.9165 3.21065 16.3241 4.19803C14.7317 5.18542 13.4238 6.57053 12.5294 8.21699C12.5294 8.38763 12.3398 8.53931 12.264 8.70994C11.6023 10.2182 11.2416 11.8412 11.2022 13.4878C9.99133 13.47 8.78914 13.695 7.66668 14.1496C6.54422 14.6042 5.52426 15.2792 4.66705 16.1346C3.80984 16.9901 3.13277 18.0086 2.67584 19.1302C2.21892 20.2517 1.9914 21.4534 2.00673 22.6643C1.99776 22.7906 1.99776 22.9173 2.00673 23.0435C2.10923 25.3842 3.11053 27.5952 4.80219 29.2163C6.49385 30.8373 8.74552 31.7434 11.0885 31.7461H12.9844M14.7477 28.03H29.2899V38.9318H14.7477V28.03ZM27.4697 28.03H16.5489V24.4086C16.5363 23.6845 16.6683 22.9652 16.9373 22.2927C17.2063 21.6203 17.6068 21.0084 18.1154 20.4927C18.6239 19.9771 19.2303 19.5682 19.899 19.29C20.5676 19.0117 21.2851 18.8698 22.0093 18.8724C23.4575 18.8724 24.8464 19.4477 25.8704 20.4717C26.8944 21.4957 27.4697 22.8846 27.4697 24.3328V28.03Z" stroke="white" stroke-width="3.41276" stroke-miterlimit="10"/>
</svg>
