<svg width="40" height="41" viewBox="0 0 40 41" fill="none" xmlns="http://www.w3.org/2000/svg">
<path d="M31.6667 22.4245C32.5871 22.4245 33.3333 21.6783 33.3333 20.7578C33.3333 19.8373 32.5871 19.0911 31.6667 19.0911C30.7462 19.0911 30 19.8373 30 20.7578C30 21.6783 30.7462 22.4245 31.6667 22.4245Z" fill="white"/>
<path d="M26.6667 22.4245C27.5871 22.4245 28.3333 21.6783 28.3333 20.7578C28.3333 19.8373 27.5871 19.0911 26.6667 19.0911C25.7462 19.0911 25 19.8373 25 20.7578C25 21.6783 25.7462 22.4245 26.6667 22.4245Z" fill="white"/>
<path d="M36.6667 4.09115H3.33333C2.89131 4.09115 2.46738 4.26674 2.15482 4.5793C1.84226 4.89186 1.66667 5.31579 1.66667 5.75781V25.7578C1.66667 26.1998 1.84226 26.6238 2.15482 26.9363C2.46738 27.2489 2.89131 27.4245 3.33333 27.4245H18.3333V31.0911C17.3668 31.5188 16.5944 32.2913 16.1667 33.2578H6C5.55797 33.2578 5.13405 33.4334 4.82149 33.746C4.50893 34.0585 4.33333 34.4825 4.33333 34.9245C4.33333 35.3665 4.50893 35.7904 4.82149 36.103C5.13405 36.4156 5.55797 36.5911 6 36.5911H16.1667C16.4869 37.3428 17.0209 37.9837 17.7025 38.4342C18.3841 38.8846 19.183 39.1248 20 39.1248C20.817 39.1248 21.6159 38.8846 22.2975 38.4342C22.9791 37.9837 23.5131 37.3428 23.8333 36.5911H34.1667C34.6087 36.5911 35.0326 36.4156 35.3452 36.103C35.6577 35.7904 35.8333 35.3665 35.8333 34.9245C35.8333 34.4825 35.6577 34.0585 35.3452 33.746C35.0326 33.4334 34.6087 33.2578 34.1667 33.2578H23.8333C23.4056 32.2913 22.6332 31.5188 21.6667 31.0911V27.4245H36.6667C37.1087 27.4245 37.5326 27.2489 37.8452 26.9363C38.1577 26.6238 38.3333 26.1998 38.3333 25.7578V5.75781C38.3333 5.31579 38.1577 4.89186 37.8452 4.5793C37.5326 4.26674 37.1087 4.09115 36.6667 4.09115ZM20 35.7578C19.8352 35.7578 19.6741 35.7089 19.537 35.6174C19.4 35.5258 19.2932 35.3957 19.2301 35.2434C19.167 35.0911 19.1505 34.9236 19.1827 34.7619C19.2148 34.6003 19.2942 34.4518 19.4107 34.3352C19.5273 34.2187 19.6758 34.1393 19.8374 34.1072C19.9991 34.075 20.1666 34.0915 20.3189 34.1546C20.4712 34.2177 20.6013 34.3245 20.6929 34.4615C20.7845 34.5985 20.8333 34.7597 20.8333 34.9245C20.8467 35.0371 20.8344 35.1514 20.7973 35.2586C20.7601 35.3658 20.6991 35.4632 20.6189 35.5434C20.5387 35.6236 20.4413 35.6846 20.3341 35.7217C20.2269 35.7589 20.1127 35.7712 20 35.7578ZM5 7.42448H35V14.0911H5V7.42448ZM35 24.0911H5V17.4245H35V24.0911Z" fill="white"/>
<path d="M31.6667 12.4245C32.5871 12.4245 33.3333 11.6783 33.3333 10.7578C33.3333 9.83734 32.5871 9.09115 31.6667 9.09115C30.7462 9.09115 30 9.83734 30 10.7578C30 11.6783 30.7462 12.4245 31.6667 12.4245Z" fill="white"/>
<path d="M26.6667 12.4245C27.5871 12.4245 28.3333 11.6783 28.3333 10.7578C28.3333 9.83734 27.5871 9.09115 26.6667 9.09115C25.7462 9.09115 25 9.83734 25 10.7578C25 11.6783 25.7462 12.4245 26.6667 12.4245Z" fill="white"/>
</svg>
