<svg width="40" height="41" viewBox="0 0 40 41" fill="none" xmlns="http://www.w3.org/2000/svg">
<path d="M29.9902 37.8835V36.453H29.232C28.0566 36.453 26.8812 36.4638 25.707 36.453C24.9538 36.4508 24.2322 36.1501 23.7004 35.6167C23.1686 35.0833 22.8699 34.3608 22.8699 33.6076C22.8568 32.673 22.8699 31.7384 22.8699 30.774H21.48C21.1927 31.86 20.785 32.1723 19.6489 32.1723H17.1539C17.1539 32.6491 17.1539 33.0902 17.1539 33.5313C17.1384 35.224 15.9118 36.4459 14.2131 36.4554C12.8327 36.4554 11.451 36.4554 10.0408 36.4554V37.8859C10.4962 37.8859 10.9385 37.8859 11.3795 37.8859C12.2414 37.8978 12.878 38.5189 12.8672 39.3307C12.8577 40.1246 12.2295 40.7338 11.3867 40.7373C9.51274 40.7461 7.6384 40.7461 5.76367 40.7373C5.57323 40.7415 5.38387 40.7075 5.20672 40.6375C5.02958 40.5674 4.8682 40.4627 4.73207 40.3295C4.59593 40.1962 4.48779 40.0371 4.41397 39.8615C4.34015 39.6859 4.30215 39.4973 4.30219 39.3069C4.30219 38.5094 4.92445 37.8966 5.76248 37.8764C6.20593 37.868 6.65057 37.8764 7.12621 37.8764V36.4757C6.9772 36.4685 6.83296 36.4566 6.68872 36.4566C5.42512 36.4566 4.16033 36.4638 2.89554 36.4566C1.2779 36.4411 0.03457 35.2121 0.0202652 33.6064C0.00596029 31.227 0.00596029 28.8472 0.0202652 26.467C0.0162596 26.0896 0.0877637 25.7152 0.230572 25.3658C0.37338 25.0164 0.58461 24.6991 0.851838 24.4326C1.11907 24.166 1.4369 23.9556 1.78664 23.8136C2.13638 23.6717 2.51098 23.6011 2.88839 23.6061C6.68157 23.5949 10.4747 23.5949 14.2679 23.6061C15.907 23.6061 17.136 24.8494 17.1527 26.4933C17.1623 27.4135 17.1527 28.3338 17.1527 29.2839H18.5832V27.9106C18.5832 26.4968 18.5773 25.0842 18.5892 23.6716C18.5892 23.4273 18.5141 23.314 18.2888 23.2115C16.6699 22.4378 15.752 21.1528 15.7413 19.348C15.7306 17.5229 16.6497 16.2319 18.2697 15.4141C18.4056 15.345 18.5689 15.1567 18.5701 15.022C18.5892 13.1778 18.582 11.3337 18.5796 9.48954C18.5733 9.44048 18.5621 9.39217 18.5463 9.3453H17.1539C17.1539 9.51577 17.1408 9.68862 17.1539 9.85908C17.384 12.3732 15.9893 13.8156 13.3798 13.6201C12.2867 13.539 11.1804 13.607 10.042 13.607V15.0374C10.4736 15.0374 10.9146 15.0374 11.3533 15.0374C12.2223 15.047 12.8601 15.6537 12.8601 16.4679C12.8601 17.2821 12.2235 17.8913 11.3545 17.8984C9.49486 17.904 7.63523 17.904 5.77559 17.8984C4.94114 17.8984 4.30457 17.2845 4.29504 16.493C4.28431 15.6764 4.91492 15.0625 5.78036 15.047C6.22262 15.0398 6.66488 15.047 7.1274 15.047V13.6165H6.65057C5.43108 13.6165 4.21159 13.6165 2.9921 13.6165C1.2338 13.6105 0.0119207 12.397 0.00357622 10.6506C-0.00119207 8.34595 -0.00119207 6.04127 0.00357622 3.7366C0.00357622 1.98664 1.23022 0.771915 2.98376 0.769531C6.70302 0.769531 10.4219 0.769531 14.1404 0.769531C15.9225 0.769531 17.1289 1.98545 17.1349 3.77355C17.1349 4.66165 17.1349 5.54974 17.1349 6.45929H18.4104C18.681 6.05041 18.8455 5.58193 19.1757 5.36616C19.5333 5.13609 20.034 5.09079 20.4774 5.06457C21.2475 5.02046 22.0271 5.05265 22.8616 5.05265C22.8616 4.62589 22.8616 4.2182 22.8616 3.80693C22.8675 1.96637 24.0656 0.769531 25.9121 0.769531C29.6019 0.769531 33.291 0.769531 36.9793 0.769531C38.7924 0.769531 39.9964 1.97591 39.9988 3.79263C39.9988 6.06869 39.9988 8.34396 39.9988 10.6184C39.9988 12.4065 38.7817 13.6141 36.9995 13.6189C35.7801 13.6189 34.5606 13.6189 33.3411 13.6189H32.8821V15.0494C33.2862 15.0494 33.6963 15.0494 34.1064 15.0494C35.0601 15.0494 35.7073 15.6251 35.7133 16.4644C35.7193 17.3036 35.0696 17.9032 34.1302 17.9044C32.3302 17.9044 30.5302 17.9044 28.7301 17.9044C27.7908 17.9044 27.1399 17.3083 27.1483 16.4632C27.1566 15.618 27.7944 15.0553 28.7111 15.0494C29.1247 15.0494 29.5384 15.0494 29.9771 15.0494V13.6189H29.5217C28.2867 13.6189 27.0529 13.6189 25.8179 13.6189C24.0954 13.6105 22.8723 12.3863 22.8628 10.6649C22.8628 9.76133 22.8628 8.85774 22.8628 7.9315H21.4323V8.3523C21.4323 10.5529 21.4323 12.7538 21.4323 14.9552C21.4323 15.1805 21.4645 15.3128 21.7088 15.432C23.367 16.214 24.2921 17.5277 24.2754 19.3659C24.2587 21.1885 23.3217 22.4748 21.6826 23.2508C21.6027 23.2878 21.5264 23.3307 21.4442 23.37V27.8641H22.8592C22.8592 27.4314 22.8592 27.0047 22.8592 26.5779C22.8687 24.847 24.0834 23.6156 25.8024 23.6132C29.5503 23.6077 33.2986 23.6077 37.0472 23.6132C38.7698 23.6132 39.9893 24.8434 39.9952 26.5743C40.0016 28.879 40.0016 31.1837 39.9952 33.4883C39.9952 35.2395 38.7686 36.4554 37.015 36.4614C35.6489 36.4614 34.2816 36.4614 32.8857 36.4614V37.8919C33.3363 37.8919 33.7786 37.8919 34.2196 37.8919C35.0827 37.9038 35.7193 38.5213 35.7109 39.3331C35.7038 40.1258 35.0755 40.7397 34.2351 40.7433C32.3596 40.752 30.4853 40.752 28.6121 40.7433C27.7777 40.7433 27.1483 40.1151 27.1459 39.3223C27.1435 38.5296 27.7646 37.9086 28.6014 37.8919C29.0532 37.8764 29.4966 37.8835 29.9902 37.8835ZM2.89197 10.721H14.262V3.63647H2.89197V10.721ZM25.7392 10.721H37.1259V3.64004H25.7392V10.721ZM2.9015 26.4813V33.567H14.2763V26.4813H2.9015ZM37.114 33.5801V26.4945H25.7464V33.5801H37.114ZM20.0304 20.7463C20.3141 20.7429 20.5904 20.6552 20.8241 20.4944C21.0578 20.3336 21.2385 20.1069 21.343 19.8432C21.4476 19.5794 21.4714 19.2905 21.4114 19.0132C21.3513 18.736 21.2102 18.4828 21.0059 18.2859C20.8016 18.089 20.5434 17.9573 20.2641 17.9076C19.9848 17.8578 19.697 17.8923 19.4373 18.0065C19.1776 18.1207 18.9577 18.3096 18.8057 18.5491C18.6536 18.7886 18.5761 19.0679 18.5832 19.3516C18.595 19.7268 18.7529 20.0826 19.0232 20.3431C19.2936 20.6037 19.655 20.7483 20.0304 20.7463Z" fill="white"/>
</svg>
