<svg width="44" height="44" viewBox="0 0 44 44" fill="none" xmlns="http://www.w3.org/2000/svg">
<path d="M27.7884 40.4108C23.8672 41.7305 19.6283 41.7723 15.6818 40.5302C11.7353 39.2881 8.28453 36.826 5.82606 33.4982C3.36758 30.1705 2.02813 26.1486 2.00044 22.0113C1.97274 17.874 3.25823 13.8346 5.67193 10.4742C8.08563 7.11385 11.5031 4.60579 15.4327 3.31093C19.3622 2.01606 23.6012 2.00113 27.5398 3.26828C31.4784 4.53544 34.9134 7.01936 37.3508 10.3626C39.7881 13.7059 41.102 17.7362 41.1034 21.8736C41.0402 23.4595 40.8482 25.0376 40.5293 26.5924M26.1604 36.7772C24.7539 38.3753 23.2119 39.8489 21.5517 41.1815V2.08594M30.722 23.9971C30.789 22.7255 30.7654 21.4508 30.6512 20.1827C30.095 13.1966 26.8293 6.70483 21.5517 2.0938C18.6882 4.58966 16.3878 7.66548 14.8028 11.1175C13.2178 14.5695 12.3844 18.319 12.3578 22.1174C12.3578 34.8583 18.0834 38.6333 21.5281 41.1815M4.54031 12.2393H38.6575M5.07511 32.3573H25.5155M2 22.1174L41.1034 21.6376M38.5159 41.4174L42 37.9255L35.7082 31.6337L39.2867 29.3451C39.3388 29.3143 39.3804 29.2683 39.4058 29.2134C39.4313 29.1584 39.4394 29.097 39.4292 29.0373C39.4189 28.9776 39.3908 28.9224 39.3485 28.8791C39.3062 28.8357 39.2517 28.8062 39.1923 28.7946L27.1671 25.979C27.1175 25.9689 27.0661 25.9712 27.0175 25.9858C26.969 26.0004 26.9249 26.0268 26.889 26.0626C26.8532 26.0985 26.8268 26.1426 26.8122 26.1912C26.7976 26.2397 26.7952 26.2911 26.8053 26.3408L29.4164 38.594C29.429 38.6536 29.459 38.7081 29.5026 38.7505C29.5462 38.793 29.6015 38.8215 29.6613 38.8325C29.7212 38.8434 29.783 38.8363 29.8388 38.8121C29.8946 38.7878 29.942 38.7475 29.9748 38.6962L32.2241 35.1257L38.5159 41.4174Z" stroke="white" stroke-width="2.51671"/>
</svg>
